<svg xmlns="http://www.w3.org/2000/svg" viewBox="0 0 242.08 274.06"><defs><style>.cls-1,.cls-3{fill:#027dba;}.cls-2{fill:#fff;stroke:#fff;}.cls-2,.cls-3,.cls-4{stroke-miterlimit:10;stroke-width:3px;}.cls-3{stroke:#027dba;}.cls-4{fill:#009af9;stroke:#009af9;}</style></defs><g id="Capa_2" data-name="Capa 2"><g id="Capa_1-2" data-name="Capa 1"><polygon class="cls-1" points="242.08 203.84 123.03 274.06 1.99 207.25 0 70.22 119.05 0 240.09 66.81 242.08 203.84"/><polygon class="cls-2" points="225.72 194.16 123.61 254.38 19.79 197.08 18.08 79.55 120.19 19.32 224.01 76.62 225.72 194.16"/><path class="cls-3" d="M121.7,194.51,55.47,161.35v-4l66.23-37v11L72,158.94v.36l49.67,24.23Z"/><path class="cls-4" d="M121.7,163.1,55.47,129.94v-4l66.23-37v11L72,127.53v.36l49.67,24.23Z"/><path class="cls-4" d="M195.81,161.42l-66.23,33.09V183.6l49.67-24.16v-.5l-49.67-27.56v-11l66.23,37Z"/><path class="cls-3" d="M195.81,130,129.58,163.1V152.19L179.25,128v-.5L129.58,100V89L195.81,126Z"/></g></g></svg>